<svg id="圖層_1" data-name="圖層 1" xmlns="http://www.w3.org/2000/svg" xmlns:xlink="http://www.w3.org/1999/xlink" viewBox="0 0 433.48 339.51"><defs><style>.cls-1,.cls-26,.cls-3,.cls-5{fill:none;}.cls-2{clip-path:url(#clip-path);}.cls-26,.cls-27,.cls-3,.cls-4,.cls-5,.cls-6{stroke:#000;}.cls-3,.cls-4,.cls-5,.cls-6{stroke-linejoin:round;}.cls-3,.cls-4{stroke-width:2px;}.cls-7,.cls-8{font-size:20px;}.cls-7,.cls-8,.cls-9{font-family:MicrosoftJhengHeiUIRegular, Microsoft JhengHei UI;}.cls-8{letter-spacing:0em;}.cls-9{font-size:18.68px;}.cls-10{letter-spacing:0em;}.cls-11{letter-spacing:-0.02em;}.cls-12{letter-spacing:0.02em;}.cls-13{letter-spacing:-0.02em;}.cls-14{letter-spacing:0.02em;}.cls-15{letter-spacing:-0.01em;}.cls-16{letter-spacing:-0.01em;}.cls-17{letter-spacing:0.02em;}.cls-18{letter-spacing:0em;}.cls-19{letter-spacing:0.03em;}.cls-20{letter-spacing:0em;}.cls-21{letter-spacing:-0.01em;}.cls-22{letter-spacing:0.01em;}.cls-23{letter-spacing:0em;}.cls-24{letter-spacing:0.03em;}.cls-25{letter-spacing:-0.01em;}.cls-26,.cls-27{stroke-miterlimit:10;}</style><clipPath id="clip-path" transform="translate(-452.33 -276.2)"><rect class="cls-1" x="477" y="297" width="386" height="246"/></clipPath></defs><title>StrengthReductionFactor</title><g class="cls-2"><path class="cls-3" d="M481,513H862" transform="translate(-452.33 -276.2)"/><path class="cls-4" d="M855,510l7,3-7,3Z" transform="translate(-452.33 -276.2)"/><path class="cls-5" d="M578.5,513v5" transform="translate(-452.33 -276.2)"/><path class="cls-5" d="M578.5,513v-5" transform="translate(-452.33 -276.2)"/><path class="cls-5" d="M749.5,513v5" transform="translate(-452.33 -276.2)"/><path class="cls-5" d="M749.5,513v-5" transform="translate(-452.33 -276.2)"/><path class="cls-3" d="M481,513V305" transform="translate(-452.33 -276.2)"/><path class="cls-4" d="M478.46,311l3.5-6,3.5,6Z" transform="translate(-452.33 -276.2)"/><path class="cls-5" d="M485,331.5H737" transform="translate(-452.33 -276.2)"/><path class="cls-5" d="M578.5,513V439" transform="translate(-452.33 -276.2)"/><path class="cls-3" d="M481,435h97.49L749.22,331H820" transform="translate(-452.33 -276.2)"/><line class="cls-3" x1="367.67" y1="54.8" x2="410.67" y2="54.8"/><path class="cls-5" d="M482,500.5h97" transform="translate(-452.33 -276.2)"/><path class="cls-6" d="M488.5,503.45l-7-3,7-3Z" transform="translate(-452.33 -276.2)"/><path class="cls-6" d="M572.5,497.45l6,3-6,3Z" transform="translate(-452.33 -276.2)"/><path class="cls-5" d="M579,500.5H750" transform="translate(-452.33 -276.2)"/><path class="cls-6" d="M585.5,503.45l-7-3,7-3Z" transform="translate(-452.33 -276.2)"/><path class="cls-6" d="M743.5,497.45l6,3-6,3Z" transform="translate(-452.33 -276.2)"/><path class="cls-5" d="M749.5,513V337" transform="translate(-452.33 -276.2)"/><path class="cls-5" d="M750,500.5H859" transform="translate(-452.33 -276.2)"/><path class="cls-6" d="M755.5,503.45l-6-3,6-3Z" transform="translate(-452.33 -276.2)"/></g><text class="cls-7" transform="translate(22 17.8) scale(0.99 1)">φ</text><text class="cls-7" transform="translate(420 241.8) scale(0.99 1)">ε</text><text class="cls-8" transform="translate(429.31 248.46) scale(0.58 0.58)">t</text><text class="cls-7" transform="translate(122 257.8) scale(0.99 1)">ε</text><text class="cls-8" transform="translate(131.31 264.46) scale(0.58 0.58)">t1</text><text class="cls-7" transform="translate(292 257.8) scale(0.99 1)">ε</text><text class="cls-8" transform="translate(301.31 264.46) scale(0.58 0.58)">t2</text><text class="cls-7" transform="translate(0 160.8) scale(0.99 1)">φ</text><text class="cls-7" transform="translate(14.85 167.46) scale(0.58 0.58)">1</text><text class="cls-7" transform="translate(0 58.8) scale(0.99 1)">φ</text><text class="cls-7" transform="translate(14.85 65.46) scale(0.58 0.58)">2</text><text class="cls-9" transform="translate(62.79 289.8) scale(0.99 1)"><tspan class="cls-10">C</tspan><tspan class="cls-11" x="12.46" y="0">o</tspan><tspan class="cls-12" x="23.89" y="0">m</tspan><tspan class="cls-13" x="41.53" y="0">p</tspan><tspan class="cls-14" x="52.95" y="0">r</tspan><tspan class="cls-15" x="60.2" y="0">e</tspan><tspan class="cls-16" x="70.59" y="0">ss</tspan><tspan class="cls-17" x="87.22" y="0">i</tspan><tspan class="cls-11" x="92.4" y="0">o</tspan><tspan x="103.83" y="0">n</tspan><tspan class="cls-10"><tspan x="10.68" y="22.42">C</tspan><tspan class="cls-11" x="23.14" y="22.42">o</tspan><tspan class="cls-18" x="34.57" y="22.42">n</tspan><tspan class="cls-19" x="45.97" y="22.42">t</tspan><tspan class="cls-14" x="53.24" y="22.42">r</tspan><tspan class="cls-11" x="60.49" y="22.42">o</tspan><tspan class="cls-12" x="71.92" y="22.42">ll</tspan><tspan class="cls-15" x="82.27" y="22.42">e</tspan><tspan class="cls-20" x="92.67" y="22.42">d</tspan></tspan><tspan x="-4.44" y="44.83">(壓力控制斷面)</tspan></text><text x="-452.33" y="-276.2"></text><text class="cls-9" transform="translate(167.14 196.8) scale(0.99 1)"><tspan class="cls-21">T</tspan><tspan class="cls-14" x="10.4" y="0">r</tspan><tspan class="cls-22" x="17.64" y="0">a</tspan><tspan class="cls-23" x="28.02" y="0">n</tspan><tspan class="cls-16" x="39.42" y="0">s</tspan><tspan class="cls-12" x="47.74" y="0">i</tspan><tspan class="cls-24" x="52.91" y="0">t</tspan><tspan class="cls-17" x="60.18" y="0">i</tspan><tspan class="cls-11" x="65.36" y="0">o</tspan><tspan x="76.79" y="0">n</tspan><tspan x="0.72" y="22.42">(過渡斷面)</tspan></text><text class="cls-9" transform="translate(327.85 171.8) scale(0.99 1)"><tspan class="cls-21">T</tspan><tspan class="cls-25" x="10.4" y="0">e</tspan><tspan class="cls-18" x="20.79" y="0">n</tspan><tspan class="cls-16" x="32.19" y="0">s</tspan><tspan class="cls-17" x="40.51" y="0">i</tspan><tspan class="cls-11" x="45.69" y="0">o</tspan><tspan x="57.12" y="0">n</tspan><tspan class="cls-10"><tspan x="-12.67" y="22.42">C</tspan><tspan class="cls-11" x="-0.21" y="22.42">o</tspan><tspan class="cls-18" x="11.22" y="22.42">n</tspan><tspan class="cls-19" x="22.62" y="22.42">t</tspan><tspan class="cls-14" x="29.88" y="22.42">r</tspan><tspan class="cls-11" x="37.13" y="22.42">o</tspan><tspan class="cls-12" x="48.56" y="22.42">ll</tspan><tspan class="cls-15" x="58.92" y="22.42">e</tspan><tspan class="cls-20" x="69.31" y="22.42">d</tspan></tspan><tspan x="-27.79" y="44.83">(拉力控制斷面)</tspan></text><line class="cls-26" x1="69.67" y1="224.8" x2="24.17" y2="305.3"/><circle class="cls-27" cx="69.67" cy="224.8" r="2.5"/><line class="cls-26" x1="57.17" y1="305.3" x2="24.17" y2="305.3"/></svg>