<svg id="圖層_1" data-name="圖層 1" xmlns="http://www.w3.org/2000/svg" xmlns:xlink="http://www.w3.org/1999/xlink" viewBox="0 0 785.27 348.42"><defs><style>.cls-1,.cls-2,.cls-3,.cls-4,.cls-7{fill:none;}.cls-2{clip-rule:evenodd;}.cls-3{fill-rule:evenodd;}.cls-4,.cls-5,.cls-6,.cls-7{stroke:#000;}.cls-4,.cls-5{stroke-linejoin:round;}.cls-6{stroke-miterlimit:8;}.cls-7{stroke-miterlimit:10;}.cls-8{clip-path:url(#clip-path);}.cls-9{font-size:21.03px;}.cls-19,.cls-52,.cls-62,.cls-68,.cls-73,.cls-9{font-family:MicrosoftJhengHeiUIRegular, Microsoft JhengHei UI;}.cls-10{letter-spacing:0em;}.cls-11{letter-spacing:-0.01em;}.cls-12{letter-spacing:-0.03em;}.cls-13{letter-spacing:-0.02em;}.cls-14{letter-spacing:-0.01em;}.cls-15{letter-spacing:0.01em;}.cls-16{letter-spacing:0em;}.cls-17{clip-path:url(#clip-path-2);}.cls-18,.cls-19{font-size:17.92px;}.cls-18{font-family:ArialMT, Arial;}.cls-20{clip-path:url(#clip-path-8);}.cls-21{letter-spacing:-0.05em;}.cls-22{letter-spacing:0.01em;}.cls-23{letter-spacing:0.01em;}.cls-24{clip-path:url(#clip-path-9);}.cls-25{letter-spacing:-0.01em;}.cls-26{letter-spacing:-0.01em;}.cls-27{letter-spacing:0em;}.cls-28{letter-spacing:-0.01em;}.cls-29{clip-path:url(#clip-path-19);}.cls-30{letter-spacing:-0.01em;}.cls-31{letter-spacing:-0.02em;}.cls-32{letter-spacing:-0.01em;}.cls-33{letter-spacing:-0.01em;}.cls-34{letter-spacing:-0.03em;}.cls-35{letter-spacing:-0.01em;}.cls-36{clip-path:url(#clip-path-20);}.cls-37{letter-spacing:0em;}.cls-38{clip-path:url(#clip-path-30);}.cls-39{letter-spacing:0.01em;}.cls-40{letter-spacing:0em;}.cls-41{letter-spacing:-0.03em;}.cls-42{letter-spacing:0.01em;}.cls-43{clip-path:url(#clip-path-31);}.cls-44{letter-spacing:0.01em;}.cls-45{letter-spacing:0em;}.cls-46{letter-spacing:-0.02em;}.cls-47{letter-spacing:-0.01em;}.cls-48{letter-spacing:-0.04em;}.cls-49{letter-spacing:0.01em;}.cls-50{letter-spacing:0em;}.cls-51{clip-path:url(#clip-path-41);}.cls-52{font-size:20.01px;}.cls-53{letter-spacing:0em;}.cls-54{letter-spacing:0em;}.cls-55{letter-spacing:0em;}.cls-56{letter-spacing:-0.01em;}.cls-57{letter-spacing:-0.01em;}.cls-58{clip-path:url(#clip-path-42);}.cls-59{letter-spacing:0.02em;}.cls-60{letter-spacing:-0.01em;}.cls-61{clip-path:url(#clip-path-44);}.cls-62,.cls-68,.cls-75{font-size:18.68px;}.cls-63{letter-spacing:0.01em;}.cls-64{letter-spacing:-0.01em;}.cls-65{letter-spacing:0.01em;}.cls-66{clip-path:url(#clip-path-45);}.cls-67{clip-path:url(#clip-path-46);}.cls-68{letter-spacing:0.01em;}.cls-69{letter-spacing:0.01em;}.cls-70{letter-spacing:0em;}.cls-71{clip-path:url(#clip-path-47);}.cls-72{clip-path:url(#clip-path-48);}.cls-73{font-size:12.46px;}.cls-74{clip-path:url(#clip-path-52);}.cls-75{font-family:MicrosoftJhengHeiRegular, Microsoft JhengHei;}.cls-76{clip-path:url(#clip-path-53);}</style><clipPath id="clip-path" transform="translate(-296 -197.72)"><rect class="cls-1" x="304" y="492.35" width="154.64" height="63.88"/></clipPath><clipPath id="clip-path-2" transform="translate(-296 -197.72)"><polygon class="cls-2" points="304 556.24 458.64 556.24 458.64 492.36 304 492.36 304 556.24 304 556.24"/></clipPath><clipPath id="clip-path-8" transform="translate(-296 -197.72)"><rect class="cls-1" x="536.68" y="464.31" width="142.33" height="91.93"/></clipPath><clipPath id="clip-path-9" transform="translate(-296 -197.72)"><polygon class="cls-2" points="536.68 556.24 679.01 556.24 679.01 464.31 536.68 464.31 536.68 556.24 536.68 556.24"/></clipPath><clipPath id="clip-path-19" transform="translate(-296 -197.72)"><rect class="cls-1" x="703.2" y="467.43" width="173.87" height="88.81"/></clipPath><clipPath id="clip-path-20" transform="translate(-296 -197.72)"><polygon class="cls-2" points="703.2 556.24 877.07 556.24 877.07 467.43 703.2 467.43 703.2 556.24 703.2 556.24"/></clipPath><clipPath id="clip-path-30" transform="translate(-296 -197.72)"><rect class="cls-1" x="881.43" y="467.43" width="211.57" height="88.81"/></clipPath><clipPath id="clip-path-31" transform="translate(-296 -197.72)"><polygon class="cls-2" points="881.43 556.24 1093 556.24 1093 467.43 881.43 467.43 881.43 556.24 881.43 556.24"/></clipPath><clipPath id="clip-path-41" transform="translate(-296 -197.72)"><rect class="cls-1" x="322" y="192.14" width="197.62" height="42.25"/></clipPath><clipPath id="clip-path-42" transform="translate(-296 -197.72)"><polygon class="cls-2" points="322 234.39 519.62 234.39 519.62 192.14 322 192.14 322 234.39 322 234.39"/></clipPath><clipPath id="clip-path-44" transform="translate(-296 -197.72)"><rect class="cls-1" x="605.57" y="195.49" width="70.39" height="39.45"/></clipPath><clipPath id="clip-path-45" transform="translate(-296 -197.72)"><rect class="cls-1" x="674.12" y="280.82" width="31.44" height="39.45"/></clipPath><clipPath id="clip-path-46" transform="translate(-296 -197.72)"><rect class="cls-1" x="600.86" y="355.44" width="58.77" height="39.45"/></clipPath><clipPath id="clip-path-47" transform="translate(-296 -197.72)"><rect class="cls-1" x="889.84" y="262.3" width="49.21" height="39.45"/></clipPath><clipPath id="clip-path-48" transform="translate(-296 -197.72)"><polygon class="cls-2" points="889.84 301.75 939.04 301.75 939.04 262.3 889.84 262.3 889.84 301.75 889.84 301.75"/></clipPath><clipPath id="clip-path-52" transform="translate(-296 -197.72)"><rect class="cls-1" x="960.32" y="190.34" width="53.99" height="40.14"/></clipPath><clipPath id="clip-path-53" transform="translate(-296 -197.72)"><polygon class="cls-2" points="960.32 230.48 1014.31 230.48 1014.31 190.34 960.32 190.34 960.32 230.48 960.32 230.48"/></clipPath></defs><title>StressBlock</title><rect class="cls-1" y="1.28" width="773" height="285"/><path class="cls-4" d="M951.5,454.08V239.5" transform="translate(-296 -197.72)"/><path class="cls-4" d="M951.5,239.5h71.68" transform="translate(-296 -197.72)"/><path class="cls-4" d="M1023.18,239.5H951.5" transform="translate(-296 -197.72)"/><path class="cls-4" d="M951.5,239.5v83.38" transform="translate(-296 -197.72)"/><path class="cls-4" d="M951.5,322.5h71.68" transform="translate(-296 -197.72)"/><path class="cls-4" d="M1022.5,322.88V239.5" transform="translate(-296 -197.72)"/><path class="cls-4" d="M765.5,454.08V239.5" transform="translate(-296 -197.72)"/><path class="cls-4" d="M765.5,239.5h71.68" transform="translate(-296 -197.72)"/><path class="cls-4" d="M846.5,246.5" transform="translate(-296 -197.72)"/><path class="cls-4" d="M851.72,250.33" transform="translate(-296 -197.72)"/><path class="cls-4" d="M849.5,248.5" transform="translate(-296 -197.72)"/><path class="cls-4" d="M851.5,250.5" transform="translate(-296 -197.72)"/><path class="cls-4" d="M853.5,253.5" transform="translate(-296 -197.72)"/><path class="cls-4" d="M1063.5,360.5h4.68" transform="translate(-296 -197.72)"/><path class="cls-4" d="M1047.5,360.5h6.16" transform="translate(-296 -197.72)"/><path class="cls-4" d="M1032.5,360.5h6.4" transform="translate(-296 -197.72)"/><path class="cls-4" d="M1017.5,360.5h5.91" transform="translate(-296 -197.72)"/><path class="cls-4" d="M1001.5,360.5h6.4" transform="translate(-296 -197.72)"/><path class="cls-4" d="M986.5,360.5h6.16" transform="translate(-296 -197.72)"/><path class="cls-4" d="M971.5,360.5h5.91" transform="translate(-296 -197.72)"/><path class="cls-4" d="M956.5,360.5h6.16" transform="translate(-296 -197.72)"/><path class="cls-4" d="M940.5,360.5h6.16" transform="translate(-296 -197.72)"/><path class="cls-4" d="M925.5,360.5h6.4" transform="translate(-296 -197.72)"/><path class="cls-4" d="M910.5,360.5h5.91" transform="translate(-296 -197.72)"/><path class="cls-4" d="M894.5,360.5h6.4" transform="translate(-296 -197.72)"/><path class="cls-4" d="M879.5,360.5h6.16" transform="translate(-296 -197.72)"/><path class="cls-4" d="M864.5,360.5h6.16" transform="translate(-296 -197.72)"/><path class="cls-4" d="M848.5,360.5h5.91" transform="translate(-296 -197.72)"/><path class="cls-4" d="M833.5,360.5h6.4" transform="translate(-296 -197.72)"/><path class="cls-4" d="M818.5,360.5h5.91" transform="translate(-296 -197.72)"/><path class="cls-4" d="M802.5,360.5h6.16" transform="translate(-296 -197.72)"/><path class="cls-4" d="M787.5,360.5h6.16" transform="translate(-296 -197.72)"/><path class="cls-4" d="M772.5,360.5h6.16" transform="translate(-296 -197.72)"/><path class="cls-4" d="M756.5,360.5h6.16" transform="translate(-296 -197.72)"/><path class="cls-4" d="M741.5,360.5h6.16" transform="translate(-296 -197.72)"/><path class="cls-4" d="M726.5,360.5h6.4" transform="translate(-296 -197.72)"/><path class="cls-4" d="M710.5,360.5h5.91" transform="translate(-296 -197.72)"/><path class="cls-4" d="M695.5,360.5h6.16" transform="translate(-296 -197.72)"/><path class="cls-4" d="M680.5,360.5h6.16" transform="translate(-296 -197.72)"/><path class="cls-4" d="M664.5,360.5h6.4" transform="translate(-296 -197.72)"/><path class="cls-4" d="M649.5,360.5h5.91" transform="translate(-296 -197.72)"/><path class="cls-4" d="M634.5,360.5h6.4" transform="translate(-296 -197.72)"/><path class="cls-4" d="M619.5,360.5h6.16" transform="translate(-296 -197.72)"/><path class="cls-4" d="M604.5,360.5h4.68" transform="translate(-296 -197.72)"/><path class="cls-4" d="M604.5,454.08V239.5" transform="translate(-296 -197.72)"/><path class="cls-4" d="M604.5,239.5h73.9" transform="translate(-296 -197.72)"/><path class="cls-4" d="M678.4,239.5,604.5,361.3" transform="translate(-296 -197.72)"/><path class="cls-4" d="M604.91,360.5,548.5,453.28" transform="translate(-296 -197.72)"/><path class="cls-4" d="M548.5,453.5h56.41" transform="translate(-296 -197.72)"/><path class="cls-4" d="M961.5,223.5h25.62" transform="translate(-296 -197.72)"/><path class="cls-4" d="M951.5,229.83V216.5" transform="translate(-296 -197.72)"/><path class="cls-5" d="M961.5,220.5v6l-10-2.88Z" transform="translate(-296 -197.72)"/><path class="cls-4" d="M1013.12,223.5H987" transform="translate(-296 -197.72)"/><path class="cls-4" d="M1022.5,229.83V216.5" transform="translate(-296 -197.72)"/><path class="cls-5" d="M1012.5,220.5l10,3.12-10,2.88Z" transform="translate(-296 -197.72)"/><path class="cls-4" d="M615.5,223.5h26.85" transform="translate(-296 -197.72)"/><path class="cls-4" d="M604.5,229.83V216.5" transform="translate(-296 -197.72)"/><path class="cls-5" d="M615.5,220.5v6l-11-2.88Z" transform="translate(-296 -197.72)"/><path class="cls-4" d="M668.6,223.5H641.5" transform="translate(-296 -197.72)"/><path class="cls-4" d="M678.5,229.83V216.5" transform="translate(-296 -197.72)"/><path class="cls-5" d="M669.5,220.5l9,3.12-9,2.88Z" transform="translate(-296 -197.72)"/><path class="cls-4" d="M933.5,249.5v31.1" transform="translate(-296 -197.72)"/><path class="cls-4" d="M926.5,239.5h12.56" transform="translate(-296 -197.72)"/><path class="cls-5" d="M933.38,239.5l3.12,10h-6Z" transform="translate(-296 -197.72)"/><path class="cls-4" d="M933.5,312.08V280" transform="translate(-296 -197.72)"/><path class="cls-4" d="M926.5,322.5h12.56" transform="translate(-296 -197.72)"/><path class="cls-5" d="M930.5,311.5h6l-3.12,11Z" transform="translate(-296 -197.72)"/><path class="cls-4" d="M546.5,453.5h2.22" transform="translate(-296 -197.72)"/><path class="cls-4" d="M538.5,453.5h3" transform="translate(-296 -197.72)"/><path class="cls-4" d="M297.5,217.5H329" transform="translate(-296 -197.72)"/><path class="cls-4" d="M329.5,218V200.5" transform="translate(-296 -197.72)"/><path class="cls-4" d="M329,200.5H297.5" transform="translate(-296 -197.72)"/><path class="cls-4" d="M297.5,200.5V218" transform="translate(-296 -197.72)"/><path class="cls-4" d="M329.69,205.21l-4.19-4.71" transform="translate(-296 -197.72)"/><path class="cls-4" d="M328.5,218l-17-17.51" transform="translate(-296 -197.72)"/><path class="cls-4" d="M315,218,298.5,200.5" transform="translate(-296 -197.72)"/><path class="cls-4" d="M301,218.16l-3.45-3.66" transform="translate(-296 -197.72)"/><path class="cls-4" d="M697.5,249.5V349.86" transform="translate(-296 -197.72)"/><path class="cls-4" d="M691.5,239.5h12.56" transform="translate(-296 -197.72)"/><path class="cls-5" d="M697.25,239.5l3.25,10h-6Z" transform="translate(-296 -197.72)"/><path class="cls-5" d="M694.5,350.5h6l-3.25,10Z" transform="translate(-296 -197.72)"/><path d="M771.45,338l60.55.14v1L771.44,339Zm1.38,3.17-8.33-2.69,8.34-2.65Z" transform="translate(-296 -197.72)"/><path d="M771.83,353l33.17.13v1L771.82,354Zm1.45,3.17-8.78-2.7,8.8-2.63Z" transform="translate(-296 -197.72)"/><path d="M771.29,323l75.71.15v1L771.29,324Zm1.35,3.17-8.14-2.68,8.15-2.65Z" transform="translate(-296 -197.72)"/><path d="M771.2,309l84.8.15v1L771.2,310Zm1.33,3.17-8-2.68,8-2.65Z" transform="translate(-296 -197.72)"/><path d="M771.17,294l91.09.15v1L771.17,295Zm1.33,3.17-8-2.68,8-2.65Z" transform="translate(-296 -197.72)"/><path d="M771.17,279l93.88.15v1L771.17,280Zm1.33,3.17-8-2.68,8-2.65Z" transform="translate(-296 -197.72)"/><path d="M771.17,264l91.09.15v1L771.17,265Zm1.33,3.17-8-2.68,8-2.65Z" transform="translate(-296 -197.72)"/><path d="M771.17,249l78.24.15v1L771.17,250Zm1.32,3.17-8-2.68,8-2.65Z" transform="translate(-296 -197.72)"/><path d="M771.17,239l66,.15v1l-66-.15Zm1.32,3.17-8-2.68,8-2.65Z" transform="translate(-296 -197.72)"/><path d="M957.17,322l66,.15v1l-66-.15Zm1.32,3.17-8-2.68,8-2.65Z" transform="translate(-296 -197.72)"/><path d="M957.17,309l66,.15v1l-66-.15Zm1.32,3.17-8-2.68,8-2.65Z" transform="translate(-296 -197.72)"/><path d="M957.17,294l66,.15v1l-66-.15Zm1.32,3.17-8-2.68,8-2.65Z" transform="translate(-296 -197.72)"/><path d="M957.17,279l66,.15v1l-66-.15Zm1.32,3.17-8-2.68,8-2.65Z" transform="translate(-296 -197.72)"/><path d="M957.17,264l66,.15v1l-66-.15Zm1.32,3.17-8-2.68,8-2.65Z" transform="translate(-296 -197.72)"/><path d="M957.17,249l66,.15v1l-66-.15Zm1.32,3.17-8-2.68,8-2.65Z" transform="translate(-296 -197.72)"/><path d="M957.17,239l66,.15v1l-66-.15Zm1.32,3.17-8-2.68,8-2.65Z" transform="translate(-296 -197.72)"/><path class="cls-4" d="M530.5,453.5h3.2" transform="translate(-296 -197.72)"/><path class="cls-4" d="M523.5,453.5h3.2" transform="translate(-296 -197.72)"/><path class="cls-4" d="M515.5,453.5h3.2" transform="translate(-296 -197.72)"/><path class="cls-4" d="M508.5,453.5h2.71" transform="translate(-296 -197.72)"/><path class="cls-4" d="M500.5,453.5h2.71" transform="translate(-296 -197.72)"/><path class="cls-4" d="M492.5,453.5H496" transform="translate(-296 -197.72)"/><path class="cls-4" d="M485.5,453.5h3.2" transform="translate(-296 -197.72)"/><path class="cls-4" d="M477.5,453.5h2.71" transform="translate(-296 -197.72)"/><path class="cls-4" d="M470.5,453.5h2.71" transform="translate(-296 -197.72)"/><path class="cls-4" d="M461.5,453.5h3.2" transform="translate(-296 -197.72)"/><path class="cls-4" d="M654.5,453.5h2.22" transform="translate(-296 -197.72)"/><path class="cls-4" d="M646.5,453.5h3" transform="translate(-296 -197.72)"/><path class="cls-4" d="M638.5,453.5h3.2" transform="translate(-296 -197.72)"/><path class="cls-4" d="M630.5,453.5h3.2" transform="translate(-296 -197.72)"/><path class="cls-4" d="M623.5,453.5h3.2" transform="translate(-296 -197.72)"/><path class="cls-4" d="M615.5,453.5h2.71" transform="translate(-296 -197.72)"/><path class="cls-4" d="M608.5,453.5h2.71" transform="translate(-296 -197.72)"/><path class="cls-4" d="M600.5,453.5H604" transform="translate(-296 -197.72)"/><path class="cls-4" d="M592.5,453.5h3.2" transform="translate(-296 -197.72)"/><path class="cls-4" d="M585.5,453.5h2.71" transform="translate(-296 -197.72)"/><path class="cls-4" d="M577.5,453.5h2.71" transform="translate(-296 -197.72)"/><path class="cls-4" d="M569.5,453.5h3.2" transform="translate(-296 -197.72)"/><path class="cls-4" d="M562.5,453.5H566" transform="translate(-296 -197.72)"/><path class="cls-4" d="M554.5,453.5h2.71" transform="translate(-296 -197.72)"/><path class="cls-4" d="M706.5,453.5H710" transform="translate(-296 -197.72)"/><path class="cls-4" d="M698.5,453.5h3.2" transform="translate(-296 -197.72)"/><path class="cls-4" d="M691.5,453.5h2.71" transform="translate(-296 -197.72)"/><path class="cls-4" d="M683.5,453.5h2.71" transform="translate(-296 -197.72)"/><path class="cls-4" d="M675.5,453.5h3.2" transform="translate(-296 -197.72)"/><path class="cls-4" d="M668.5,453.5H672" transform="translate(-296 -197.72)"/><path class="cls-4" d="M660.5,453.5h2.71" transform="translate(-296 -197.72)"/><path class="cls-4" d="M973.5,453.5h2.22" transform="translate(-296 -197.72)"/><path class="cls-4" d="M965.5,453.5h3" transform="translate(-296 -197.72)"/><path class="cls-4" d="M957.5,453.5h3.2" transform="translate(-296 -197.72)"/><path class="cls-4" d="M949.5,453.5h3.2" transform="translate(-296 -197.72)"/><path class="cls-4" d="M942.5,453.5h3.2" transform="translate(-296 -197.72)"/><path class="cls-4" d="M934.5,453.5h2.71" transform="translate(-296 -197.72)"/><path class="cls-4" d="M927.5,453.5h2.71" transform="translate(-296 -197.72)"/><path class="cls-4" d="M919.5,453.5H923" transform="translate(-296 -197.72)"/><path class="cls-4" d="M911.5,453.5h3.2" transform="translate(-296 -197.72)"/><path class="cls-4" d="M904.5,453.5h2.71" transform="translate(-296 -197.72)"/><path class="cls-4" d="M896.5,453.5h2.71" transform="translate(-296 -197.72)"/><path class="cls-4" d="M888.5,453.5h3.2" transform="translate(-296 -197.72)"/><path class="cls-4" d="M880.5,453.5H884" transform="translate(-296 -197.72)"/><path class="cls-4" d="M873.5,453.5h2.71" transform="translate(-296 -197.72)"/><path class="cls-4" d="M1025.5,453.5H1029" transform="translate(-296 -197.72)"/><path class="cls-4" d="M1017.5,453.5h3.2" transform="translate(-296 -197.72)"/><path class="cls-4" d="M1010.5,453.5h2.71" transform="translate(-296 -197.72)"/><path class="cls-4" d="M1002.5,453.5h2.71" transform="translate(-296 -197.72)"/><path class="cls-4" d="M994.5,453.5h3.2" transform="translate(-296 -197.72)"/><path class="cls-4" d="M987.5,453.5H991" transform="translate(-296 -197.72)"/><path class="cls-4" d="M979.5,453.5h2.71" transform="translate(-296 -197.72)"/><path class="cls-4" d="M814.5,453.5h2.22" transform="translate(-296 -197.72)"/><path class="cls-4" d="M806.5,453.5h3" transform="translate(-296 -197.72)"/><path class="cls-4" d="M799.5,453.5h3.2" transform="translate(-296 -197.72)"/><path class="cls-4" d="M791.5,453.5h3.2" transform="translate(-296 -197.72)"/><path class="cls-4" d="M783.5,453.5h3.2" transform="translate(-296 -197.72)"/><path class="cls-4" d="M776.5,453.5h2.71" transform="translate(-296 -197.72)"/><path class="cls-4" d="M768.5,453.5h2.71" transform="translate(-296 -197.72)"/><path class="cls-4" d="M760.5,453.5H764" transform="translate(-296 -197.72)"/><path class="cls-4" d="M753.5,453.5h3.2" transform="translate(-296 -197.72)"/><path class="cls-4" d="M745.5,453.5h2.71" transform="translate(-296 -197.72)"/><path class="cls-4" d="M738.5,453.5h2.71" transform="translate(-296 -197.72)"/><path class="cls-4" d="M730.5,453.5h3.2" transform="translate(-296 -197.72)"/><path class="cls-4" d="M722.5,453.5H726" transform="translate(-296 -197.72)"/><path class="cls-4" d="M715.5,453.5h2.71" transform="translate(-296 -197.72)"/><path class="cls-4" d="M866.5,453.5H870" transform="translate(-296 -197.72)"/><path class="cls-4" d="M859.5,453.5h3.2" transform="translate(-296 -197.72)"/><path class="cls-4" d="M851.5,453.5h2.71" transform="translate(-296 -197.72)"/><path class="cls-4" d="M844.5,453.5h2.71" transform="translate(-296 -197.72)"/><path class="cls-4" d="M836.5,453.5h3.2" transform="translate(-296 -197.72)"/><path class="cls-4" d="M828.5,453.5H832" transform="translate(-296 -197.72)"/><path class="cls-4" d="M821.5,453.5h2.71" transform="translate(-296 -197.72)"/><path class="cls-4" d="M1063.5,453.5h2.71" transform="translate(-296 -197.72)"/><path class="cls-4" d="M1055.5,453.5h2.71" transform="translate(-296 -197.72)"/><path class="cls-4" d="M1047.5,453.5h3.2" transform="translate(-296 -197.72)"/><path class="cls-4" d="M1039.5,453.5H1043" transform="translate(-296 -197.72)"/><path class="cls-4" d="M1032.5,453.5h2.71" transform="translate(-296 -197.72)"/><path class="cls-4" d="M576.5,239.5h2.22" transform="translate(-296 -197.72)"/><path class="cls-4" d="M568.5,239.5h3" transform="translate(-296 -197.72)"/><path class="cls-4" d="M560.5,239.5h3.2" transform="translate(-296 -197.72)"/><path class="cls-4" d="M553.5,239.5h3.2" transform="translate(-296 -197.72)"/><path class="cls-4" d="M545.5,239.5h3.2" transform="translate(-296 -197.72)"/><path class="cls-4" d="M538.5,239.5h2.71" transform="translate(-296 -197.72)"/><path class="cls-4" d="M530.5,239.5h2.71" transform="translate(-296 -197.72)"/><path class="cls-4" d="M522.5,239.5H526" transform="translate(-296 -197.72)"/><path class="cls-4" d="M515.5,239.5h3.2" transform="translate(-296 -197.72)"/><path class="cls-4" d="M507.5,239.5h2.71" transform="translate(-296 -197.72)"/><path class="cls-4" d="M500.5,239.5h2.71" transform="translate(-296 -197.72)"/><path class="cls-4" d="M491.5,239.5h3.2" transform="translate(-296 -197.72)"/><path class="cls-4" d="M484.5,239.5H488" transform="translate(-296 -197.72)"/><path class="cls-4" d="M476.5,239.5h2.71" transform="translate(-296 -197.72)"/><path class="cls-4" d="M628.5,239.5H632" transform="translate(-296 -197.72)"/><path class="cls-4" d="M621.5,239.5h3.2" transform="translate(-296 -197.72)"/><path class="cls-4" d="M613.5,239.5h2.71" transform="translate(-296 -197.72)"/><path class="cls-4" d="M606.5,239.5h2.71" transform="translate(-296 -197.72)"/><path class="cls-4" d="M598.5,239.5h3.2" transform="translate(-296 -197.72)"/><path class="cls-4" d="M590.5,239.5H594" transform="translate(-296 -197.72)"/><path class="cls-4" d="M583.5,239.5h2.71" transform="translate(-296 -197.72)"/><path class="cls-4" d="M895.5,239.5h2.22" transform="translate(-296 -197.72)"/><path class="cls-4" d="M887.5,239.5h3" transform="translate(-296 -197.72)"/><path class="cls-4" d="M879.5,239.5h3.2" transform="translate(-296 -197.72)"/><path class="cls-4" d="M872.5,239.5h3.2" transform="translate(-296 -197.72)"/><path class="cls-4" d="M864.5,239.5h3.2" transform="translate(-296 -197.72)"/><path class="cls-4" d="M857.5,239.5h2.71" transform="translate(-296 -197.72)"/><path class="cls-4" d="M849.5,239.5h2.71" transform="translate(-296 -197.72)"/><path class="cls-4" d="M841.5,239.5H845" transform="translate(-296 -197.72)"/><path class="cls-4" d="M833.5,239.5h3.2" transform="translate(-296 -197.72)"/><path class="cls-4" d="M826.5,239.5h2.71" transform="translate(-296 -197.72)"/><path class="cls-4" d="M818.5,239.5h2.71" transform="translate(-296 -197.72)"/><path class="cls-4" d="M810.5,239.5h3.2" transform="translate(-296 -197.72)"/><path class="cls-4" d="M803.5,239.5H807" transform="translate(-296 -197.72)"/><path class="cls-4" d="M795.5,239.5h2.71" transform="translate(-296 -197.72)"/><path class="cls-4" d="M947.5,239.5H951" transform="translate(-296 -197.72)"/><path class="cls-4" d="M940.5,239.5h3.2" transform="translate(-296 -197.72)"/><path class="cls-4" d="M932.5,239.5h2.71" transform="translate(-296 -197.72)"/><path class="cls-4" d="M925.5,239.5h2.71" transform="translate(-296 -197.72)"/><path class="cls-4" d="M916.5,239.5h3.2" transform="translate(-296 -197.72)"/><path class="cls-4" d="M909.5,239.5H913" transform="translate(-296 -197.72)"/><path class="cls-4" d="M901.5,239.5h2.71" transform="translate(-296 -197.72)"/><path class="cls-4" d="M736.5,239.5h2.22" transform="translate(-296 -197.72)"/><path class="cls-4" d="M729.5,239.5h3" transform="translate(-296 -197.72)"/><path class="cls-4" d="M721.5,239.5h3.2" transform="translate(-296 -197.72)"/><path class="cls-4" d="M713.5,239.5h3.2" transform="translate(-296 -197.72)"/><path class="cls-4" d="M706.5,239.5h3.2" transform="translate(-296 -197.72)"/><path class="cls-4" d="M698.5,239.5h2.71" transform="translate(-296 -197.72)"/><path class="cls-4" d="M691.5,239.5h2.71" transform="translate(-296 -197.72)"/><path class="cls-4" d="M682.5,239.5H686" transform="translate(-296 -197.72)"/><path class="cls-4" d="M675.5,239.5h3.2" transform="translate(-296 -197.72)"/><path class="cls-4" d="M667.5,239.5h2.71" transform="translate(-296 -197.72)"/><path class="cls-4" d="M660.5,239.5h2.71" transform="translate(-296 -197.72)"/><path class="cls-4" d="M652.5,239.5h3.2" transform="translate(-296 -197.72)"/><path class="cls-4" d="M644.5,239.5H648" transform="translate(-296 -197.72)"/><path class="cls-4" d="M637.5,239.5h2.71" transform="translate(-296 -197.72)"/><path class="cls-4" d="M789.5,239.5H793" transform="translate(-296 -197.72)"/><path class="cls-4" d="M781.5,239.5h3.2" transform="translate(-296 -197.72)"/><path class="cls-4" d="M774.5,239.5h2.71" transform="translate(-296 -197.72)"/><path class="cls-4" d="M766.5,239.5h2.71" transform="translate(-296 -197.72)"/><path class="cls-4" d="M758.5,239.5h3.2" transform="translate(-296 -197.72)"/><path class="cls-4" d="M750.5,239.5H754" transform="translate(-296 -197.72)"/><path class="cls-4" d="M743.5,239.5h2.71" transform="translate(-296 -197.72)"/><path class="cls-4" d="M985.5,239.5h2.71" transform="translate(-296 -197.72)"/><path class="cls-4" d="M977.5,239.5h2.71" transform="translate(-296 -197.72)"/><path class="cls-4" d="M969.5,239.5h3.2" transform="translate(-296 -197.72)"/><path class="cls-4" d="M962.5,239.5H966" transform="translate(-296 -197.72)"/><path class="cls-4" d="M954.5,239.5h2.71" transform="translate(-296 -197.72)"/><path class="cls-4" d="M1062.5,239.5h3.2" transform="translate(-296 -197.72)"/><path class="cls-4" d="M1055.5,239.5h2.71" transform="translate(-296 -197.72)"/><path class="cls-4" d="M1047.5,239.5h2.71" transform="translate(-296 -197.72)"/><path class="cls-4" d="M1039.5,239.5H1043" transform="translate(-296 -197.72)"/><path class="cls-4" d="M1032.5,239.5h3.2" transform="translate(-296 -197.72)"/><path class="cls-4" d="M1024.5,239.5h2.71" transform="translate(-296 -197.72)"/><path class="cls-4" d="M1017.5,239.5h2.71" transform="translate(-296 -197.72)"/><path class="cls-4" d="M1009.5,239.5h3.2" transform="translate(-296 -197.72)"/><path class="cls-4" d="M1001.5,239.5H1005" transform="translate(-296 -197.72)"/><path class="cls-4" d="M993.5,239.5h2.71" transform="translate(-296 -197.72)"/><path class="cls-4" d="M600.5,360.5h4.68" transform="translate(-296 -197.72)"/><path class="cls-4" d="M585.5,360.5h6.16" transform="translate(-296 -197.72)"/><path class="cls-4" d="M570.5,360.5h6.4" transform="translate(-296 -197.72)"/><path class="cls-4" d="M554.5,360.5h5.91" transform="translate(-296 -197.72)"/><path class="cls-4" d="M539.5,360.5h6.4" transform="translate(-296 -197.72)"/><path class="cls-4" d="M524.5,360.5h6.16" transform="translate(-296 -197.72)"/><path class="cls-4" d="M509.5,360.5h5.91" transform="translate(-296 -197.72)"/><path class="cls-4" d="M493.5,360.5h6.16" transform="translate(-296 -197.72)"/><path class="cls-4" d="M297.5,239.5H473.87" transform="translate(-296 -197.72)"/><path class="cls-4" d="M474.5,239.5V483.09" transform="translate(-296 -197.72)"/><path class="cls-4" d="M473.87,482.5H297.5" transform="translate(-296 -197.72)"/><path class="cls-4" d="M297.5,483.09V239.5" transform="translate(-296 -197.72)"/><path class="cls-5" d="M337.83,450.5l.67,3h-6Z" transform="translate(-296 -197.72)"/><path class="cls-5" d="M337,448.5l1.5,2-6,3Z" transform="translate(-296 -197.72)"/><path class="cls-5" d="M334.72,447.5l1.78,1.2-4,4.8Z" transform="translate(-296 -197.72)"/><path class="cls-5" d="M332.5,446.5l2,.75-2,6.25Z" transform="translate(-296 -197.72)"/><path class="cls-5" d="M332.5,446.5v7l-3-6.25Z" transform="translate(-296 -197.72)"/><path class="cls-5" d="M329.61,447.5l2.89,6-5-4.8Z" transform="translate(-296 -197.72)"/><path class="cls-5" d="M327.39,448.5l5.11,5-7-3Z" transform="translate(-296 -197.72)"/><path class="cls-5" d="M326,450.5l6.5,3h-7Z" transform="translate(-296 -197.72)"/><path class="cls-5" d="M325.5,453.5h7l-6.5,3Z" transform="translate(-296 -197.72)"/><path class="cls-5" d="M332.5,453.5l-5.11,5-1.89-2.22Z" transform="translate(-296 -197.72)"/><path class="cls-5" d="M332.5,453.5l-2.89,7-2.11-1.75Z" transform="translate(-296 -197.72)"/><path class="cls-5" d="M332.5,453.5v7l-3-.78Z" transform="translate(-296 -197.72)"/><path class="cls-5" d="M332.5,453.5l2,6.22-2,.78Z" transform="translate(-296 -197.72)"/><path class="cls-5" d="M332.5,453.5l4,5.25-1.78,1.75Z" transform="translate(-296 -197.72)"/><path class="cls-5" d="M332.5,453.5l6,2.78L337,458.5Z" transform="translate(-296 -197.72)"/><path class="cls-5" d="M332.5,453.5h6l-.67,3Z" transform="translate(-296 -197.72)"/><path class="cls-5" d="M392.25,450.5l.25,3h-7Z" transform="translate(-296 -197.72)"/><path class="cls-5" d="M390.94,448.5l1.56,2-7,3Z" transform="translate(-296 -197.72)"/><path class="cls-5" d="M388.36,447.5l2.14,1.2-5,4.8Z" transform="translate(-296 -197.72)"/><path class="cls-5" d="M385.5,446.5l3,.75-3,6.25Z" transform="translate(-296 -197.72)"/><path class="cls-5" d="M385.5,446.5v7l-2-6.25Z" transform="translate(-296 -197.72)"/><path class="cls-5" d="M383.28,447.5l2.22,6-4-4.8Z" transform="translate(-296 -197.72)"/><path class="cls-5" d="M381,448.5l4.5,5-6-3Z" transform="translate(-296 -197.72)"/><path class="cls-5" d="M380,450.5l5.54,3h-6Z" transform="translate(-296 -197.72)"/><path class="cls-5" d="M379.5,453.5h6l-5.54,3Z" transform="translate(-296 -197.72)"/><path class="cls-5" d="M385.5,453.5l-4.5,5-1.5-2.22Z" transform="translate(-296 -197.72)"/><path class="cls-5" d="M385.5,453.5l-2.22,7-1.78-1.75Z" transform="translate(-296 -197.72)"/><path class="cls-5" d="M385.5,453.5v7l-2-.78Z" transform="translate(-296 -197.72)"/><path class="cls-5" d="M385.5,453.5l3,6.22-3,.78Z" transform="translate(-296 -197.72)"/><path class="cls-5" d="M385.5,453.5l5,5.25-2.14,1.75Z" transform="translate(-296 -197.72)"/><path class="cls-5" d="M385.5,453.5l7,2.78-1.56,2.22Z" transform="translate(-296 -197.72)"/><path class="cls-5" d="M385.5,453.5h7l-.25,3Z" transform="translate(-296 -197.72)"/><path class="cls-5" d="M446,450.5l.48,3h-7Z" transform="translate(-296 -197.72)"/><path class="cls-5" d="M444.68,448.5l1.82,2-7,3Z" transform="translate(-296 -197.72)"/><path class="cls-5" d="M442,447.5l2.5,1.2-5,4.8Z" transform="translate(-296 -197.72)"/><path class="cls-5" d="M439.5,446.5l3,.75-3,6.25Z" transform="translate(-296 -197.72)"/><path class="cls-5" d="M439.5,446.5v7l-2-6.25Z" transform="translate(-296 -197.72)"/><path class="cls-5" d="M437.4,447.5l2.1,6-4-4.8Z" transform="translate(-296 -197.72)"/><path class="cls-5" d="M434.75,448.5l4.75,5-6-3Z" transform="translate(-296 -197.72)"/><path class="cls-5" d="M433.5,450.5l6,3h-7Z" transform="translate(-296 -197.72)"/><path class="cls-5" d="M432.5,453.5h7l-6,3Z" transform="translate(-296 -197.72)"/><path class="cls-5" d="M439.5,453.5l-4.75,5-1.25-2.22Z" transform="translate(-296 -197.72)"/><path class="cls-5" d="M439.5,453.5l-2.1,7-1.9-1.75Z" transform="translate(-296 -197.72)"/><path class="cls-5" d="M439.5,453.5v7l-2-.78Z" transform="translate(-296 -197.72)"/><path class="cls-5" d="M439.5,453.5l3,6.22-3,.78Z" transform="translate(-296 -197.72)"/><path class="cls-5" d="M439.5,453.5l5,5.25L442,460.5Z" transform="translate(-296 -197.72)"/><path class="cls-5" d="M439.5,453.5l7,2.78-1.82,2.22Z" transform="translate(-296 -197.72)"/><path class="cls-5" d="M439.5,453.5h7l-.48,3Z" transform="translate(-296 -197.72)"/><path class="cls-5" d="M325.5,268.5h7l-6.5,3Z" transform="translate(-296 -197.72)"/><path class="cls-5" d="M332.5,268.5l-5.11,5L325.5,271Z" transform="translate(-296 -197.72)"/><path class="cls-5" d="M332.5,268.5l-2.89,7-2.11-1.75Z" transform="translate(-296 -197.72)"/><path class="cls-5" d="M332.5,268.5v7l-3-.54Z" transform="translate(-296 -197.72)"/><path class="cls-5" d="M332.5,268.5l2,6.46-2,.54Z" transform="translate(-296 -197.72)"/><path class="cls-5" d="M332.5,268.5l4,5.25-1.78,1.75Z" transform="translate(-296 -197.72)"/><path class="cls-5" d="M332.5,268.5l6,2.5-1.5,2.5Z" transform="translate(-296 -197.72)"/><path class="cls-5" d="M332.5,268.5h6l-.67,3Z" transform="translate(-296 -197.72)"/><path class="cls-5" d="M337.83,265.5l.67,3h-6Z" transform="translate(-296 -197.72)"/><path class="cls-5" d="M337,263.5l1.5,2.14-6,2.86Z" transform="translate(-296 -197.72)"/><path class="cls-5" d="M334.72,261.5l1.78,1.56-4,5.44Z" transform="translate(-296 -197.72)"/><path class="cls-5" d="M332.5,261.5l2,.48-2,6.52Z" transform="translate(-296 -197.72)"/><path class="cls-5" d="M332.5,261.5v7l-3-6.52Z" transform="translate(-296 -197.72)"/><path class="cls-5" d="M329.61,261.5l2.89,7-5-5.44Z" transform="translate(-296 -197.72)"/><path class="cls-5" d="M327.39,263.5l5.11,5-7-2.86Z" transform="translate(-296 -197.72)"/><path class="cls-5" d="M326,265.5l6.5,3h-7Z" transform="translate(-296 -197.72)"/><path class="cls-5" d="M379.5,268.5h6l-5.54,3Z" transform="translate(-296 -197.72)"/><path class="cls-5" d="M385.5,268.5l-4.5,5-1.5-2.5Z" transform="translate(-296 -197.72)"/><path class="cls-5" d="M385.5,268.5l-2.22,7-1.78-1.75Z" transform="translate(-296 -197.72)"/><path class="cls-5" d="M385.5,268.5v7l-2-.54Z" transform="translate(-296 -197.72)"/><path class="cls-5" d="M385.5,268.5l3,6.46-3,.54Z" transform="translate(-296 -197.72)"/><path class="cls-5" d="M385.5,268.5l5,5.25-2.14,1.75Z" transform="translate(-296 -197.72)"/><path class="cls-5" d="M385.5,268.5l7,2.5-1.56,2.5Z" transform="translate(-296 -197.72)"/><path class="cls-5" d="M385.5,268.5h7l-.25,3Z" transform="translate(-296 -197.72)"/><path class="cls-5" d="M392.25,265.5l.25,3h-7Z" transform="translate(-296 -197.72)"/><path class="cls-5" d="M390.94,263.5l1.56,2.14-7,2.86Z" transform="translate(-296 -197.72)"/><path class="cls-5" d="M388.36,261.5l2.14,1.56-5,5.44Z" transform="translate(-296 -197.72)"/><path class="cls-5" d="M385.5,261.5l3,.48-3,6.52Z" transform="translate(-296 -197.72)"/><path class="cls-5" d="M385.5,261.5v7l-2-6.52Z" transform="translate(-296 -197.72)"/><path class="cls-5" d="M383.28,261.5l2.22,7-4-5.44Z" transform="translate(-296 -197.72)"/><path class="cls-5" d="M381,263.5l4.5,5-6-2.86Z" transform="translate(-296 -197.72)"/><path class="cls-5" d="M380,265.5l5.54,3h-6Z" transform="translate(-296 -197.72)"/><path class="cls-5" d="M432.5,268.5h7l-6,3Z" transform="translate(-296 -197.72)"/><path class="cls-5" d="M439.5,268.5l-4.75,5L433.5,271Z" transform="translate(-296 -197.72)"/><path class="cls-5" d="M439.5,268.5l-2.1,7-1.9-1.75Z" transform="translate(-296 -197.72)"/><path class="cls-5" d="M439.5,268.5v7l-2-.54Z" transform="translate(-296 -197.72)"/><path class="cls-5" d="M439.5,268.5l3,6.46-3,.54Z" transform="translate(-296 -197.72)"/><path class="cls-5" d="M439.5,268.5l5,5.25L442,275.5Z" transform="translate(-296 -197.72)"/><path class="cls-5" d="M439.5,268.5l7,2.5-1.82,2.5Z" transform="translate(-296 -197.72)"/><path class="cls-5" d="M439.5,268.5h7l-.48,3Z" transform="translate(-296 -197.72)"/><path class="cls-5" d="M446,265.5l.48,3h-7Z" transform="translate(-296 -197.72)"/><path class="cls-5" d="M444.68,263.5l1.82,2.14-7,2.86Z" transform="translate(-296 -197.72)"/><path class="cls-5" d="M442,261.5l2.5,1.56-5,5.44Z" transform="translate(-296 -197.72)"/><path class="cls-5" d="M439.5,261.5l3,.48-3,6.52Z" transform="translate(-296 -197.72)"/><path class="cls-5" d="M439.5,261.5v7l-2-6.52Z" transform="translate(-296 -197.72)"/><path class="cls-5" d="M437.4,261.5l2.1,7-4-5.44Z" transform="translate(-296 -197.72)"/><path class="cls-5" d="M434.75,263.5l4.75,5-6-2.86Z" transform="translate(-296 -197.72)"/><path class="cls-5" d="M433.5,265.5l6,3h-7Z" transform="translate(-296 -197.72)"/><rect class="cls-6" x="143.5" y="132.78" width="1" height="1"/><rect class="cls-6" x="143.5" y="193.78" width="1" height="1"/><path class="cls-5" d="M432.5,330.5h7l-6,3Z" transform="translate(-296 -197.72)"/><path class="cls-5" d="M439.5,330.5l-4.75,5-1.25-2.22Z" transform="translate(-296 -197.72)"/><path class="cls-5" d="M439.5,330.5l-2.1,6-1.9-1.5Z" transform="translate(-296 -197.72)"/><path class="cls-5" d="M439.5,330.5v7l-2-.54Z" transform="translate(-296 -197.72)"/><path class="cls-5" d="M439.5,330.5l3,6.46-3,.54Z" transform="translate(-296 -197.72)"/><path class="cls-5" d="M439.5,330.5l5,4.5-2.5,1.5Z" transform="translate(-296 -197.72)"/><path class="cls-5" d="M439.5,330.5l7,2.78-1.82,2.22Z" transform="translate(-296 -197.72)"/><path class="cls-5" d="M439.5,330.5h7l-.48,3Z" transform="translate(-296 -197.72)"/><path class="cls-5" d="M446,327.5l.48,3h-7Z" transform="translate(-296 -197.72)"/><path class="cls-5" d="M444.68,324.5l1.82,2.57-7,3.43Z" transform="translate(-296 -197.72)"/><path class="cls-5" d="M442,323.5l2.5,1.56-5,5.44Z" transform="translate(-296 -197.72)"/><path class="cls-5" d="M439.5,323.5l3,.25-3,6.75Z" transform="translate(-296 -197.72)"/><path class="cls-5" d="M439.5,323.5v7l-2-6.75Z" transform="translate(-296 -197.72)"/><path class="cls-5" d="M437.4,323.5l2.1,7-4-5.44Z" transform="translate(-296 -197.72)"/><path class="cls-5" d="M434.75,324.5l4.75,6-6-3.43Z" transform="translate(-296 -197.72)"/><path class="cls-5" d="M433.5,327.5l6,3h-7Z" transform="translate(-296 -197.72)"/><path class="cls-5" d="M432.5,392.5h7l-6,2Z" transform="translate(-296 -197.72)"/><path class="cls-5" d="M439.5,392.5l-4.75,4-1.25-1.78Z" transform="translate(-296 -197.72)"/><path class="cls-5" d="M439.5,392.5l-2.1,6-1.9-1.5Z" transform="translate(-296 -197.72)"/><path class="cls-5" d="M439.5,392.5v7l-2-.78Z" transform="translate(-296 -197.72)"/><path class="cls-5" d="M439.5,392.5l3,6.22-3,.78Z" transform="translate(-296 -197.72)"/><path class="cls-5" d="M439.5,392.5l5,4.5-2.5,1.5Z" transform="translate(-296 -197.72)"/><path class="cls-5" d="M439.5,392.5l7,2.22-1.82,1.78Z" transform="translate(-296 -197.72)"/><path class="cls-5" d="M439.5,392.5h7l-.48,2Z" transform="translate(-296 -197.72)"/><path class="cls-5" d="M446,388.5l.48,4h-7Z" transform="translate(-296 -197.72)"/><path class="cls-5" d="M444.68,386.5l1.82,2.57-7,3.43Z" transform="translate(-296 -197.72)"/><path class="cls-5" d="M442,385.5l2.5,1.56-5,5.44Z" transform="translate(-296 -197.72)"/><path class="cls-5" d="M439.5,384.5l3,.29-3,7.71Z" transform="translate(-296 -197.72)"/><path class="cls-5" d="M439.5,384.5v8l-2-7.71Z" transform="translate(-296 -197.72)"/><path class="cls-5" d="M437.4,385.5l2.1,7-4-5.44Z" transform="translate(-296 -197.72)"/><path class="cls-5" d="M434.75,386.5l4.75,6-6-3.43Z" transform="translate(-296 -197.72)"/><path class="cls-5" d="M433.5,388.5l6,4h-7Z" transform="translate(-296 -197.72)"/><rect class="cls-6" x="36.5" y="132.78" width="1" height="1"/><rect class="cls-6" x="36.5" y="193.78" width="1" height="1"/><path class="cls-5" d="M325.5,330.5h7l-6.5,3Z" transform="translate(-296 -197.72)"/><path class="cls-5" d="M332.5,330.5l-5.11,5-1.89-2.22Z" transform="translate(-296 -197.72)"/><path class="cls-5" d="M332.5,330.5l-2.89,6L327.5,335Z" transform="translate(-296 -197.72)"/><path class="cls-5" d="M332.5,330.5v7l-3-.54Z" transform="translate(-296 -197.72)"/><path class="cls-5" d="M332.5,330.5l2,6.46-2,.54Z" transform="translate(-296 -197.72)"/><path class="cls-5" d="M332.5,330.5l4,4.5-1.78,1.5Z" transform="translate(-296 -197.72)"/><path class="cls-5" d="M332.5,330.5l6,2.78L337,335.5Z" transform="translate(-296 -197.72)"/><path class="cls-5" d="M332.5,330.5h6l-.67,3Z" transform="translate(-296 -197.72)"/><path class="cls-5" d="M337.83,327.5l.67,3h-6Z" transform="translate(-296 -197.72)"/><path class="cls-5" d="M337,324.5l1.5,2.57-6,3.43Z" transform="translate(-296 -197.72)"/><path class="cls-5" d="M334.72,323.5l1.78,1.56-4,5.44Z" transform="translate(-296 -197.72)"/><path class="cls-5" d="M332.5,323.5l2,.25-2,6.75Z" transform="translate(-296 -197.72)"/><path class="cls-5" d="M332.5,323.5v7l-3-6.75Z" transform="translate(-296 -197.72)"/><path class="cls-5" d="M329.61,323.5l2.89,7-5-5.44Z" transform="translate(-296 -197.72)"/><path class="cls-5" d="M327.39,324.5l5.11,6-7-3.43Z" transform="translate(-296 -197.72)"/><path class="cls-5" d="M326,327.5l6.5,3h-7Z" transform="translate(-296 -197.72)"/><path class="cls-5" d="M325.5,392.5h7l-6.5,2Z" transform="translate(-296 -197.72)"/><path class="cls-5" d="M332.5,392.5l-5.11,4-1.89-1.78Z" transform="translate(-296 -197.72)"/><path class="cls-5" d="M332.5,392.5l-2.89,6L327.5,397Z" transform="translate(-296 -197.72)"/><path class="cls-5" d="M332.5,392.5v7l-3-.78Z" transform="translate(-296 -197.72)"/><path class="cls-5" d="M332.5,392.5l2,6.22-2,.78Z" transform="translate(-296 -197.72)"/><path class="cls-5" d="M332.5,392.5l4,4.5-1.78,1.5Z" transform="translate(-296 -197.72)"/><path class="cls-5" d="M332.5,392.5l6,2.22L337,396.5Z" transform="translate(-296 -197.72)"/><path class="cls-5" d="M332.5,392.5h6l-.67,2Z" transform="translate(-296 -197.72)"/><path class="cls-5" d="M337.83,388.5l.67,4h-6Z" transform="translate(-296 -197.72)"/><path class="cls-5" d="M337,386.5l1.5,2.57-6,3.43Z" transform="translate(-296 -197.72)"/><path class="cls-5" d="M334.72,385.5l1.78,1.56-4,5.44Z" transform="translate(-296 -197.72)"/><path class="cls-5" d="M332.5,384.5l2,.29-2,7.71Z" transform="translate(-296 -197.72)"/><path class="cls-5" d="M332.5,384.5v8l-3-7.71Z" transform="translate(-296 -197.72)"/><path class="cls-5" d="M329.61,385.5l2.89,7-5-5.44Z" transform="translate(-296 -197.72)"/><path class="cls-5" d="M327.39,386.5l5.11,6-7-3.43Z" transform="translate(-296 -197.72)"/><path class="cls-5" d="M326,388.5l6.5,4h-7Z" transform="translate(-296 -197.72)"/><path class="cls-4" d="M474.1,267.73,447.5,239.5" transform="translate(-296 -197.72)"/><path class="cls-4" d="M474.52,291.77l-49-52.27" transform="translate(-296 -197.72)"/><path class="cls-4" d="M474.43,315.56,402.5,239.5" transform="translate(-296 -197.72)"/><path class="cls-4" d="M473.84,339.86,379.5,239.5" transform="translate(-296 -197.72)"/><path class="cls-4" d="M472.29,361.3,357.5,239.5" transform="translate(-296 -197.72)"/><path class="cls-4" d="M449,361.3,334.5,239.5" transform="translate(-296 -197.72)"/><path class="cls-4" d="M427.29,361.3,312.5,239.5" transform="translate(-296 -197.72)"/><path class="cls-4" d="M403.91,361.41,297.5,248.5" transform="translate(-296 -197.72)"/><path class="cls-4" d="M381.5,360.63l-84-89.13" transform="translate(-296 -197.72)"/><path class="cls-4" d="M358.59,360.58,297.5,295.5" transform="translate(-296 -197.72)"/><path class="cls-4" d="M336.17,360.8,297.5,319.5" transform="translate(-296 -197.72)"/><path class="cls-4" d="M313.76,361.49l-16.26-17" transform="translate(-296 -197.72)"/><path class="cls-4" d="M474,360.5H297.5" transform="translate(-296 -197.72)"/><path class="cls-4" d="M439.5,392.5h3.7" transform="translate(-296 -197.72)"/><path class="cls-4" d="M439.5,330.5h1.72" transform="translate(-296 -197.72)"/><path class="cls-4" d="M439.5,268.5h5.17" transform="translate(-296 -197.72)"/><path class="cls-4" d="M454.5,453.5H458" transform="translate(-296 -197.72)"/><path class="cls-4" d="M446.5,453.5h2.71" transform="translate(-296 -197.72)"/><path class="cls-4" d="M439.5,453.5h2.22" transform="translate(-296 -197.72)"/><path class="cls-4" d="M297.5,361.3V239.5" transform="translate(-296 -197.72)"/><path class="cls-4" d="M297.5,239.5H473.87" transform="translate(-296 -197.72)"/><path class="cls-4" d="M474.5,239.5V361.3" transform="translate(-296 -197.72)"/><path class="cls-4" d="M474.44,245.21l-3.94-4.71" transform="translate(-296 -197.72)"/><path class="cls-4" d="M480.5,361.5h5.91" transform="translate(-296 -197.72)"/><path class="cls-1" d="M837,239h-1" transform="translate(-296 -197.72)"/><path class="cls-7" d="M865,275c0,47.54-44.28,86-99,86" transform="translate(-296 -197.72)"/><path class="cls-7" d="M865,280c0-18.36-11.92-34.12-29-41" transform="translate(-296 -197.72)"/><g class="cls-8"><text class="cls-9" transform="translate(20.76 320.79) scale(0.99 1)"><tspan class="cls-10">Cro</tspan><tspan class="cls-11" x="35.08" y="0">ss</tspan><tspan class="cls-12" x="53.81" y="0"> </tspan><tspan class="cls-13" x="58.5" y="0">S</tspan><tspan class="cls-14" x="70.19" y="0">e</tspan><tspan class="cls-13" x="81.89" y="0">c</tspan><tspan class="cls-15" x="92.02" y="0">t</tspan><tspan x="99.8" y="0">i</tspan><tspan class="cls-16" x="105.25" y="0">o</tspan><tspan x="118.5" y="0">n</tspan></text></g><g class="cls-17"><g class="cls-8"><text class="cls-18" transform="translate(43.84 342.6) scale(0.99 1)">(</text></g><g class="cls-17"><g class="cls-8"><text class="cls-19" transform="translate(49.99 342.6) scale(0.99 1)">斷面示意</text></g><g class="cls-17"><g class="cls-8"><text class="cls-18" transform="translate(120.76 342.6) scale(0.99 1)">)</text></g></g></g></g><g class="cls-20"><text class="cls-9" transform="translate(282.3 292.4) scale(0.99 1)"><tspan class="cls-21">S</tspan><tspan class="cls-22" x="10.91" y="0">t</tspan><tspan class="cls-10" x="18.69" y="0">r</tspan><tspan class="cls-23" x="26.5" y="0">a</tspan><tspan x="38.18" y="0">in</tspan></text></g><g class="cls-24"><g class="cls-20"><text class="cls-9" transform="translate(255.37 317.34) scale(0.99 1)"><tspan class="cls-25">D</tspan><tspan x="15.58" y="0">i</tspan><tspan class="cls-26" x="21.04" y="0">s</tspan><tspan class="cls-22" x="30.4" y="0">t</tspan><tspan class="cls-10" x="38.18" y="0">r</tspan><tspan x="45.98" y="0">i</tspan><tspan class="cls-27" x="51.44" y="0">b</tspan><tspan class="cls-28" x="64.7" y="0">u</tspan><tspan class="cls-22" x="77.18" y="0">t</tspan><tspan x="84.96" y="0">i</tspan><tspan class="cls-16" x="90.41" y="0">o</tspan><tspan x="103.66" y="0">n</tspan></text></g><g class="cls-24"><g class="cls-20"><text class="cls-18" transform="translate(266.14 342.25) scale(0.99 1)">(</text></g><g class="cls-24"><g class="cls-20"><text class="cls-19" transform="translate(272.3 342.25) scale(0.99 1)">應變</text></g><g class="cls-24"><g class="cls-20"><text class="cls-19" transform="translate(307.68 342.25) scale(0.99 1)">分布</text></g><g class="cls-24"><g class="cls-20"><text class="cls-18" transform="translate(343.07 342.25) scale(0.99 1)">)</text></g></g></g></g></g></g><g class="cls-29"><text class="cls-9" transform="translate(420.18 295.52) scale(0.99 1)"><tspan class="cls-10">Co</tspan><tspan class="cls-30" x="27.28" y="0">n</tspan><tspan class="cls-31" x="39.76" y="0">c</tspan><tspan class="cls-10" x="49.89" y="0">r</tspan><tspan class="cls-32" x="57.69" y="0">e</tspan><tspan class="cls-15" x="69.4" y="0">t</tspan><tspan class="cls-33" x="77.18" y="0">e</tspan><tspan class="cls-34" x="88.88" y="0"> </tspan><tspan class="cls-21" x="93.57" y="0">S</tspan><tspan class="cls-15" x="104.49" y="0">t</tspan><tspan class="cls-10" x="112.26" y="0">r</tspan><tspan class="cls-33" x="120.07" y="0">e</tspan><tspan class="cls-35" x="131.78" y="0">s</tspan><tspan x="141.14" y="0">s</tspan></text></g><g class="cls-36"><g class="cls-29"><text class="cls-9" transform="translate(439.4 320.44) scale(0.99 1)"><tspan class="cls-25">D</tspan><tspan x="15.58" y="0">i</tspan><tspan class="cls-11" x="21.04" y="0">s</tspan><tspan class="cls-15" x="30.4" y="0">t</tspan><tspan class="cls-10" x="38.18" y="0">r</tspan><tspan x="45.98" y="0">i</tspan><tspan class="cls-37" x="51.44" y="0">b</tspan><tspan class="cls-30" x="64.7" y="0">u</tspan><tspan class="cls-15" x="77.18" y="0">t</tspan><tspan x="84.96" y="0">i</tspan><tspan class="cls-10" x="90.41" y="0">o</tspan><tspan x="103.66" y="0">n</tspan></text></g><g class="cls-36"><g class="cls-29"><text class="cls-18" transform="translate(426.33 342.24) scale(0.99 1)">(</text></g><g class="cls-36"><g class="cls-29"><text class="cls-19" transform="translate(432.48 342.24) scale(0.99 1)">混凝土應力</text></g><g class="cls-36"><g class="cls-29"><text class="cls-19" transform="translate(520.96 342.24) scale(0.99 1)">分布</text></g><g class="cls-36"><g class="cls-29"><text class="cls-18" transform="translate(556.35 342.24) scale(0.99 1)">)</text></g></g></g></g></g></g><g class="cls-38"><text class="cls-9" transform="translate(607.82 295.52) scale(0.99 1)"><tspan class="cls-39">E</tspan><tspan class="cls-40" x="11.68" y="0">q</tspan><tspan class="cls-30" x="24.93" y="0">u</tspan><tspan x="37.41" y="0">i</tspan><tspan class="cls-41" x="42.87" y="0">v</tspan><tspan class="cls-23" x="53" y="0">a</tspan><tspan x="64.68" y="0">l</tspan><tspan class="cls-33" x="70.13" y="0">e</tspan><tspan class="cls-30" x="81.84" y="0">n</tspan><tspan class="cls-42" x="94.32" y="0">t</tspan><tspan class="cls-12" x="102.1" y="0"> </tspan><tspan class="cls-21" x="106.79" y="0">S</tspan><tspan class="cls-42" x="117.7" y="0">t</tspan><tspan class="cls-10" x="125.48" y="0">r</tspan><tspan class="cls-33" x="133.29" y="0">e</tspan><tspan class="cls-11" x="144.99" y="0">ss</tspan><tspan x="163.71" y="0"> </tspan></text></g><g class="cls-43"><g class="cls-38"><text class="cls-9" transform="translate(606.28 320.44) scale(0.99 1)"><tspan class="cls-44">B</tspan><tspan x="13.24" y="0">l</tspan><tspan class="cls-45" x="18.69" y="0">o</tspan><tspan class="cls-46" x="31.94" y="0">c</tspan><tspan class="cls-47" x="42.07" y="0">k</tspan><tspan class="cls-34" x="52.99" y="0"> </tspan><tspan class="cls-48" x="57.68" y="0">o</tspan><tspan x="70.15" y="0">f</tspan><tspan class="cls-49" x="77.16" y="0"> </tspan><tspan class="cls-10" x="82.6" y="0">Co</tspan><tspan class="cls-30" x="109.88" y="0">n</tspan><tspan class="cls-31" x="122.36" y="0">c</tspan><tspan class="cls-10" x="132.49" y="0">r</tspan><tspan class="cls-33" x="140.3" y="0">e</tspan><tspan class="cls-15" x="152" y="0">t</tspan><tspan class="cls-50" x="159.78" y="0">e</tspan></text></g><g class="cls-43"><g class="cls-38"><text class="cls-18" transform="translate(596.27 342.24) scale(0.99 1)">(</text></g><g class="cls-43"><g class="cls-38"><text class="cls-19" transform="translate(602.42 342.24) scale(0.99 1)">混凝土等值矩形應力</text></g><g class="cls-43"><g class="cls-38"><text class="cls-19" transform="translate(761.68 342.24) scale(0.99 1)">塊</text></g><g class="cls-43"><g class="cls-38"><text class="cls-18" transform="translate(779.37 342.24) scale(0.99 1)">)</text></g></g></g></g></g></g><g class="cls-51"><text class="cls-52" transform="translate(38.38 19.16) scale(0.99 1)"><tspan class="cls-53">Co</tspan><tspan x="25.95" y="0">m</tspan><tspan class="cls-54" x="44.49" y="0">p</tspan><tspan class="cls-55" x="57.1" y="0">r</tspan><tspan class="cls-56" x="64.53" y="0">e</tspan><tspan class="cls-57" x="75.66" y="0">ss</tspan><tspan x="93.47" y="0">i</tspan><tspan class="cls-53" x="98.66" y="0">o</tspan><tspan x="111.27" y="0">n</tspan></text></g><g class="cls-58"><g class="cls-51"><text class="cls-52" transform="translate(164.26 19.16) scale(0.99 1)"><tspan class="cls-59">Z</tspan><tspan class="cls-53" x="12.59" y="0">o</tspan><tspan class="cls-60" x="25.2" y="0">n</tspan><tspan x="37.07" y="0">e</tspan></text></g></g><g class="cls-61"><text class="cls-62" transform="translate(320.76 20.74) scale(0.99 1)"><tspan class="cls-63">0</tspan><tspan class="cls-64" x="11.07" y="0">.</tspan><tspan class="cls-65" x="15.23" y="0">00</tspan><tspan x="37.37" y="0">3</tspan></text></g><g class="cls-66"><text class="cls-62" transform="translate(389.34 106.36) scale(0.99 1)">c</text></g><g class="cls-67"><text class="cls-68" transform="translate(316.03 180.85) scale(0.99 1)">N<tspan class="cls-64" x="15.21" y="0">.</tspan><tspan class="cls-69" x="19.37" y="0">A</tspan><tspan class="cls-70" x="32.5" y="0">.</tspan></text></g><g class="cls-71"><text class="cls-62" transform="translate(605.25 87.63) scale(0.99 1)">β</text></g><g class="cls-72"><g class="cls-71"><text class="cls-73" transform="translate(616.18 91.78) scale(0.99 1)">1</text></g><g class="cls-72"><g class="cls-71"><text class="cls-62" transform="translate(623.02 87.63) scale(0.99 1)">c</text></g></g></g><g class="cls-74"><text class="cls-75" transform="translate(675.31 16.63) scale(0.99 1)">α</text></g><g class="cls-76"><g class="cls-74"><text class="cls-73" transform="translate(687.61 20.78) scale(0.99 1)">1</text></g><g class="cls-76"><g class="cls-74"><text class="cls-62" transform="translate(694.45 16.63) scale(0.99 1)">f</text></g><g class="cls-76"><g class="cls-74"><text class="cls-73" transform="translate(701.28 11.1) scale(0.99 1)">’</text></g><g class="cls-76"><g class="cls-74"><text class="cls-73" transform="translate(702.64 20.78) scale(0.99 1)">c</text></g></g></g></g></g></svg>