<svg id="圖層_1" data-name="圖層 1" xmlns="http://www.w3.org/2000/svg" xmlns:xlink="http://www.w3.org/1999/xlink" viewBox="0 0 499.06 504.89"><defs><style>.cls-1{fill:none;}.cls-2{clip-path:url(#clip-path);}.cls-3{fill:#fc0;}</style><clipPath id="clip-path" transform="translate(-442.54 -139.64)"><rect class="cls-1" x="441.47" y="139" width="498.7" height="505"/></clipPath></defs><title>logo</title><g class="cls-2"><path class="cls-3" d="M927,139.64c-6.66,3.15-13.94,4.12-21,5.92-41.47,10.61-83.25,20.13-124.4,31.85-31.18,8.87-63.07,15-93.93,24.9a284.79,284.79,0,0,0-95,52.2C567,275.72,543.2,299,524.09,326.56c-17.83,25.68-33.23,52.75-42.91,82.64-7.83,24.16-12.82,48.91-12.64,74.49,0,1.13-.06,2.27-.16,3.39,0,.25-.35.47-.8,1-3.15-5.1-4.88-10.64-6.64-16.08-23.79-73.64-17.19-144.15,21.68-211.43,18.11-31.37,43-56.15,72.07-77.35,33.4-24.32,70.87-37.25,111.37-42.65,2.56-.34,5.22.16,7.68-1Z" transform="translate(-442.54 -139.64)"/><path class="cls-3" d="M941.6,410.42c-1.49,11.07-2.71,22.17-5.14,33.11-10.37,46.79-32.21,87.28-65.5,121.83-39.72,41.22-88.09,64.94-144.54,72.38a243.75,243.75,0,0,1-124.11-15.61c-1.89-.75-4-1.24-6.19-3.5,6.79-.28,12.86-.32,18.89-.67,38.38-2.23,73.83-14.24,106.94-33a351.61,351.61,0,0,0,104.78-90.24c18.1-23.17,33.74-48.07,45-75.43,8.33-20.16,13.43-41.27,18.66-62.37Q912,270.07,933.85,183.28c2.43-9.71,4-19.65,7.75-29Z" transform="translate(-442.54 -139.64)"/><path class="cls-3" d="M509.61,598.65l-30.9,31c-3,3-6,6-9,8.94-7.38,7.28-16.54,8-22.84,1.75s-5.73-15.56,1.52-22.83Q466.81,599,485.23,580.6c1.08-1.08,2.66-1.87,2.94-4.21-10.14,0-20.14.07-30.15,0-9.1-.08-14.95-5.75-15.43-14.72-.49-9.37,6-16,16.12-16,20.13-.08,40.26-.19,60.38.09,5,.06,7.46-1.11,8.89-6.27,2.87-10.35,8-19.8,13.13-29.25,17-31.63,39.09-59.61,61.89-87.16,22.09-26.69,46.73-50.84,71.52-74.94,34.85-33.91,73.87-62.07,114.74-88.19,27.46-17.55,55-35.06,82.26-52.86,2.21-1.43,4.27-3.33,7.13-3.78.53,2.2-.81,3.36-1.63,4.66-23.51,37.35-47.18,74.6-70.53,112-19,30.43-42,57.64-65.53,84.5-23.7,27-49.72,51.6-76.46,75.54-30.34,27.15-62.46,51.69-98.82,70.32a107.18,107.18,0,0,1-20.7,8.43c-3.48.93-4.53,2.69-4.51,6.19q.21,31.65,0,63.3c0,9.7-6.19,16.26-15,16.27-8.2,0-14.62-6-14.78-14.25-.21-10.36,0-20.72,0-31.09Z" transform="translate(-442.54 -139.64)"/><path class="cls-3" d="M890.58,241.19c-1.43,6.1-2.77,12.22-4.29,18.3-9.56,38.22-19,76.49-28.8,114.65-10.85,42.13-32.24,78.61-59.91,111.89-26.42,31.77-58.05,56.72-94.09,76.64C678,576.75,651.18,586,622.36,589.57a136.8,136.8,0,0,1-55.4-4.13c-1.19-.35-2.93-.32-3.14-1.86s1.42-1.5,2.38-2c30.29-14.15,57.68-32.9,84.12-53.13,13.15-10.06,26.19-20.34,38.2-31.71,27.68-26.2,55.8-52.05,80.43-81.24,20.07-23.78,40.6-47.36,57.07-73.89,17.19-27.71,35-55,52.08-82.8,3.71-6.05,7.22-12.21,11.2-18.08Z" transform="translate(-442.54 -139.64)"/><path class="cls-3" d="M842.2,192.55c-4.09,2.61-7.47,4.79-10.87,6.94-28.08,17.84-56.65,34.95-84.09,53.72a693.79,693.79,0,0,0-79,62.27c-31.75,29.27-62.3,59.79-89.79,93.09-20.12,24.37-39.76,49.27-55.58,76.81a316.33,316.33,0,0,0-16.71,33c-.62,1.45-.93,3.12-2.85,4.6-3-6.27-4-12.78-5.05-19.21-4.3-26.69-.29-52.63,7.21-78.27,9.18-31.39,25-59.28,44-85.72,23.24-32.36,52.49-57.93,85-80.5,29.55-20.49,62.45-31.64,96.92-39.86C766.68,211,801.77,201.51,837,192.52,838.34,192.17,839.7,191.46,842.2,192.55Z" transform="translate(-442.54 -139.64)"/></g></svg>